<svg xmlns="http://www.w3.org/2000/svg" version="1.1" xmlns:xlink="http://www.w3.org/1999/xlink" xmlns:svgjs="http://svgjs.dev/svgjs" width="1500" height="446" viewBox="0 0 1500 446"><g transform="matrix(1,0,0,1,-0.9090909090909918,-0.5554094970232768)"><svg viewBox="0 0 396 118" data-background-color="#fefbf6" preserveAspectRatio="xMidYMid meet" height="446" width="1500" xmlns="http://www.w3.org/2000/svg" xmlns:xlink="http://www.w3.org/1999/xlink"><g id="tight-bounds" transform="matrix(1,0,0,1,0.2400000000000091,0.1469469072841889)"><svg viewBox="0 0 395.52 117.70610618543161" height="117.70610618543161" width="395.52"><g><svg viewBox="0 0 614.0730111926855 182.74712545776185" height="117.70610618543161" width="395.52"><g transform="matrix(1,0,0,1,218.55301119268552,53.45580982841278)"><svg viewBox="0 0 395.52 75.83550580093629" height="75.83550580093629" width="395.52"><g id="textblocktransform"><svg viewBox="0 0 395.52 75.83550580093629" height="75.83550580093629" width="395.52" id="textblock"><g><svg viewBox="0 0 395.52 75.83550580093629" height="75.83550580093629" width="395.52"><g transform="matrix(1,0,0,1,0,0)"><svg width="395.52" viewBox="4.7 -37.1 245.63000000000002 47.1" height="75.83550580093629" data-palette-color="#29231d"><path d="M29.45-35L34.4-35 34.4-10.4Q34.4-2.8 30.35 1.25 26.3 5.3 19.15 5.3L19.15 5.3Q14.85 5.3 11.33 3.98 7.8 2.65 5.4 0.2L5.4 0.2 7.55-3.7Q12.15 0.8 19.15 0.8L19.15 0.8Q29.45 0.8 29.45-10.2L29.45-10.2 29.45-13.75Q25.95-8.65 18.6-8.65L18.6-8.65Q12-8.65 8.35-12.45 4.7-16.25 4.7-23.3L4.7-23.3 4.7-35 9.7-35 9.7-23.5Q9.7-18.4 12.2-15.75 14.7-13.1 19.15-13.1L19.15-13.1Q23.95-13.1 26.7-15.9 29.45-18.7 29.45-24.25L29.45-24.25 29.45-35ZM55.25 0.3Q51.3 0.3 48.15-1.45 45-3.2 43.22-6.28 41.45-9.35 41.45-13.25L41.45-13.25Q41.45-17.15 43.22-20.23 45-23.3 48.15-25.03 51.3-26.75 55.25-26.75L55.25-26.75Q59.2-26.75 62.32-25.03 65.45-23.3 67.22-20.23 69-17.15 69-13.25L69-13.25Q69-9.35 67.22-6.28 65.45-3.2 62.32-1.45 59.2 0.3 55.25 0.3L55.25 0.3ZM55.25-3.9Q57.8-3.9 59.82-5.08 61.85-6.25 63-8.38 64.15-10.5 64.15-13.25L64.15-13.25Q64.15-16 63-18.13 61.85-20.25 59.82-21.4 57.8-22.55 55.25-22.55L55.25-22.55Q52.7-22.55 50.67-21.4 48.65-20.25 47.47-18.13 46.3-16 46.3-13.25L46.3-13.25Q46.3-10.5 47.47-8.38 48.65-6.25 50.67-5.08 52.7-3.9 55.25-3.9L55.25-3.9ZM95.55-26.5L100.34-26.5 100.34-3.6Q100.34 3.35 97.09 6.68 93.84 10 87.34 10L87.34 10Q83.8 10 80.57 8.97 77.34 7.95 75.3 6.05L75.3 6.05 77.64 2.35Q79.39 3.95 81.87 4.85 84.34 5.75 87.09 5.75L87.09 5.75Q91.44 5.75 93.5 3.58 95.55 1.4 95.55-3.1L95.55-3.1 95.55-5.05Q94.09-3.15 91.8-2.13 89.5-1.1 86.8-1.1L86.8-1.1Q81.5-1.1 78.44-4 75.39-6.9 75.39-12.6L75.39-12.6 75.39-26.5 80.19-26.5 80.19-13.15Q80.19-9.35 82.05-7.38 83.89-5.4 87.34-5.4L87.34-5.4Q91.14-5.4 93.34-7.7 95.55-10 95.55-14.2L95.55-14.2 95.55-26.5ZM125.99 0.4Q120.69 0.4 116.44-1.93 112.19-4.25 109.77-8.35 107.34-12.45 107.34-17.5L107.34-17.5Q107.34-22.55 109.77-26.65 112.19-30.75 116.44-33.08 120.69-35.4 125.99-35.4L125.99-35.4Q131.24-35.4 135.49-33.08 139.74-30.75 142.14-26.68 144.54-22.6 144.54-17.5L144.54-17.5Q144.54-12.4 142.14-8.33 139.74-4.25 135.49-1.93 131.24 0.4 125.99 0.4L125.99 0.4ZM125.99-4.05Q129.84-4.05 132.92-5.8 135.99-7.55 137.77-10.63 139.54-13.7 139.54-17.5L139.54-17.5Q139.54-21.3 137.77-24.38 135.99-27.45 132.92-29.2 129.84-30.95 125.99-30.95L125.99-30.95Q122.14-30.95 119.02-29.2 115.89-27.45 114.12-24.38 112.34-21.3 112.34-17.5L112.34-17.5Q112.34-13.7 114.12-10.63 115.89-7.55 119.02-5.8 122.14-4.05 125.99-4.05L125.99-4.05ZM156.09-22.05Q157.34-24.35 159.79-25.55 162.24-26.75 165.74-26.75L165.74-26.75 165.74-22.1Q165.34-22.15 164.64-22.15L164.64-22.15Q160.74-22.15 158.51-19.83 156.29-17.5 156.29-13.2L156.29-13.2 156.29 0 151.49 0 151.49-26.5 156.09-26.5 156.09-22.05ZM191.59-37.1L196.39-37.1 196.39 0 191.79 0 191.79-4.2Q190.19-2 187.74-0.85 185.29 0.3 182.34 0.3L182.34 0.3Q178.49 0.3 175.44-1.4 172.39-3.1 170.66-6.18 168.94-9.25 168.94-13.25L168.94-13.25Q168.94-17.25 170.66-20.3 172.39-23.35 175.44-25.05 178.49-26.75 182.34-26.75L182.34-26.75Q185.19-26.75 187.59-25.68 189.99-24.6 191.59-22.5L191.59-22.5 191.59-37.1ZM182.74-3.9Q185.24-3.9 187.29-5.08 189.34-6.25 190.49-8.38 191.64-10.5 191.64-13.25L191.64-13.25Q191.64-16 190.49-18.13 189.34-20.25 187.29-21.4 185.24-22.55 182.74-22.55L182.74-22.55Q180.19-22.55 178.16-21.4 176.14-20.25 174.96-18.13 173.79-16 173.79-13.25L173.79-13.25Q173.79-10.5 174.96-8.38 176.14-6.25 178.16-5.08 180.19-3.9 182.74-3.9L182.74-3.9ZM217.44-3.9Q222.19-3.9 225.09-7.1L225.09-7.1 227.69-4Q225.94-1.9 223.26-0.8 220.59 0.3 217.28 0.3L217.28 0.3Q213.09 0.3 209.84-1.43 206.59-3.15 204.81-6.25 203.03-9.35 203.03-13.25L203.03-13.25Q203.03-17.1 204.76-20.2 206.49-23.3 209.51-25.03 212.53-26.75 216.34-26.75L216.34-26.75Q219.94-26.75 222.88-25.13 225.84-23.5 227.59-20.55 229.34-17.6 229.38-13.75L229.38-13.75 208.34-9.65Q209.34-6.9 211.71-5.4 214.09-3.9 217.44-3.9L217.44-3.9ZM216.34-22.7Q213.84-22.7 211.86-21.55 209.88-20.4 208.78-18.32 207.69-16.25 207.69-13.5L207.69-13.5 207.69-13 224.63-16.2Q223.99-19.1 221.74-20.9 219.49-22.7 216.34-22.7L216.34-22.7ZM240.68-22.05Q241.93-24.35 244.38-25.55 246.83-26.75 250.33-26.75L250.33-26.75 250.33-22.1Q249.93-22.15 249.23-22.15L249.23-22.15Q245.33-22.15 243.11-19.83 240.88-17.5 240.88-13.2L240.88-13.2 240.88 0 236.08 0 236.08-26.5 240.68-26.5 240.68-22.05Z" opacity="1" transform="matrix(1,0,0,1,0,0)" fill="#29231d" class="wordmark-text-0" data-fill-palette-color="primary" id="text-0"></path></svg></g></svg></g></svg></g></svg></g><g><svg viewBox="0 0 182.74712545776185 182.74712545776185" height="182.74712545776185" width="182.74712545776185"><g><svg></svg></g><g id="icon-0"><svg viewBox="0 0 182.74712545776185 182.74712545776185" height="182.74712545776185" width="182.74712545776185"><g><path d="M0 91.374c0-50.464 40.909-91.374 91.374-91.374 50.464 0 91.374 40.909 91.373 91.374 0 50.464-40.909 91.374-91.373 91.373-50.464 0-91.374-40.909-91.374-91.373zM91.374 175.908c46.687 0 84.535-37.847 84.534-84.534 0-46.687-37.847-84.535-84.534-84.535-46.687 0-84.535 37.847-84.535 84.535 0 46.687 37.847 84.535 84.535 84.534z" data-fill-palette-color="accent" fill="#97afaf" stroke="transparent"></path><ellipse rx="90.45982710159211" ry="90.45982710159211" cx="91.37356272888093" cy="91.37356272888093" fill="#97afaf" stroke="transparent" stroke-width="0" fill-opacity="1" data-fill-palette-color="accent"></ellipse></g><g transform="matrix(1,0,0,1,40.24030212825465,40.24050017207241)"><svg viewBox="0 0 102.26652120125256 102.26612511361704" height="102.26612511361704" width="102.26652120125256"><g><svg xmlns="http://www.w3.org/2000/svg" xmlns:xlink="http://www.w3.org/1999/xlink" version="1.1" x="0" y="0" viewBox="0.3082933560602016 0.7199169069829658 99.05742306574129 99.05703940723778" enable-background="new 0 0 100 100" xml:space="preserve" height="102.26612511361704" width="102.26652120125256" class="icon-cg-0" data-fill-palette-color="quaternary" id="cg-0"><path d="M9.117 8.945L8.853 9.208C-2.223 20.284-2.691 38.339 8.385 49.415L50.67 91.7c11.076 11.076 29.13 10.609 40.209-0.469l0.261-0.261c11.078-11.078 10.911-28.5-0.165-39.576L48.689 9.109C37.614-1.966 20.192-2.131 9.117 8.945zM81.528 70.883c-3.257-0.985-6.091-1.03-9.133-1.025 0.053-1.276 0.185-2.519 0.267-3.847 0.048-0.789 0.094-1.591 0.136-2.396 6.108 0.033 12.728 1.025 19.756 5.32 1.485 0.908 1.965 2.86 1.058 4.345-0.132 0.219-0.262 0.441-0.435 0.614-1.007 1.007-2.553 1.284-3.82 0.509-1.317-0.804-2.713-1.563-3.784-1.906L72.457 85.611c0.343 1.071 1.103 2.468 1.908 3.785 0.774 1.268 0.444 2.762-0.562 3.768-0.174 0.174-0.368 0.33-0.586 0.464-1.486 0.906-3.425 0.44-4.332-1.045-4.295-7.028-5.271-13.63-5.305-19.739-0.006-0.851 0.014-1.687 0.039-2.519 0.052-1.653 0.163-3.254 0.258-4.828 0.031-0.502 0.091-0.97 0.119-1.46 0.05-0.863 0.147-1.649 0.18-2.479 0.16-4.171-0.367-8.312-1.377-11.545L49.975 62.839c3.232 1.01 7.372 1.537 11.545 1.377-0.023 0.4-0.16 0.688-0.187 1.099-0.099 1.624-0.201 3.33-0.251 5.104-7.682 0.231-15.526-0.69-23.278-8.442-7.734-7.734-8.671-15.578-8.439-23.261 0.026-0.844 0.057-1.691 0.103-2.53 0.043-0.769 0.075-1.55 0.122-2.313 0.085-1.351 0.139-2.717 0.195-4.048 0.034-0.844 0-1.742 0.005-2.582 0.016-2.738 0.139-5.167-0.896-8.375L18.828 28.932c3.207 1.036 5.637 0.913 8.375 0.897-0.054 1.245-0.018 2.62-0.099 3.915-0.052 0.821-0.098 1.659-0.144 2.499-6.165-0.012-12.841-0.953-19.983-5.229-1.494-0.894-1.968-2.818-1.075-4.313 0.137-0.229 0.319-0.411 0.499-0.591 0.999-0.999 2.624-1.188 3.889-0.431 1.692 1.013 3.133 1.586 5.056 2.492l12.787-12.787c-0.907-1.922-1.478-3.363-2.491-5.056-0.757-1.265-0.607-2.935 0.388-3.932 0.18-0.179 0.383-0.339 0.612-0.475 1.495-0.895 3.431-0.407 4.326 1.086 4.275 7.143 5.225 13.827 5.236 19.992 0.002 0.852-0.006 1.7-0.035 2.531-0.054 1.628-0.143 3.229-0.24 4.78-0.033 0.527-0.046 1.065-0.078 1.58-0.049 0.862-0.053 1.741-0.087 2.572-0.174 4.502 0.186 8.701 1.937 12.607l13.331-13.33c-3.906-1.752-8.105-2.111-12.607-1.938 0.026-0.42-0.025-0.92 0.002-1.354 0.101-1.604 0.203-3.289 0.256-5.04 7.683-0.232 15.522 0.701 23.256 8.436 7.752 7.751 8.671 15.593 8.44 23.274-0.025 0.843-0.067 1.681-0.113 2.519-0.04 0.737-0.089 1.47-0.134 2.204-0.086 1.381-0.181 2.733-0.233 4.094-0.032 0.843-0.078 1.657-0.078 2.499-0.007 3.042 0.039 5.875 1.024 9.132L81.528 70.883z" fill="#fefbf6" data-fill-palette-color="quaternary"></path><path d="M57.316 42.14c-1.141-1.14-1.897-1.715-3.481-2.96L39.14 53.875c1.245 1.583 1.819 2.34 2.961 3.481 1.396 1.396 3.283 3.002 4.24 3.459L60.776 46.38C60.319 45.423 58.714 43.536 57.316 42.14z" fill="#fefbf6" data-fill-palette-color="quaternary"></path></svg></g></svg></g></svg></g></svg></g></svg></g><defs></defs></svg><rect width="395.52" height="117.70610618543161" fill="none" stroke="none" visibility="hidden"></rect></g></svg></g></svg>